<?xml version="1.0" encoding="UTF-8"?>
<svg version="1.1" xmlns="http://www.w3.org/2000/svg" width="625" height="156">
<path d="M0 0 C4.66328891 2.80568126 7.66741331 6.12990306 10 11 C7.94921875 12.171875 7.94921875 12.171875 5.8984375 13.34375 C5.02195557 13.84479248 4.14547363 14.34583496 3.24243164 14.86206055 C1.32302685 15.9584664 -0.59706401 17.05367204 -2.51782227 18.14770508 C-6.79526999 20.58583948 -11.06807434 23.02779345 -15.30078125 25.54296875 C-15.92452637 25.91035156 -16.54827148 26.27773438 -17.19091797 26.65625 C-18.82761975 27.62262242 -20.45893623 28.59809938 -22.08984375 29.57421875 C-25.11383459 31.05577131 -27.66854945 31.6276322 -31 32 C-30.21366078 33.14949588 -29.42073742 34.29448989 -28.625 35.4375 C-28.18414062 36.07558594 -27.74328125 36.71367188 -27.2890625 37.37109375 C-26.07839147 39.13740928 -26.07839147 39.13740928 -24 40 C-17.42166653 40.76161367 -13.57356726 38.57331487 -8.125 35.3125 C-6.60677083 34.43359375 -5.08854167 33.5546875 -3.5703125 32.67578125 C-1.23627213 31.31000981 1.09697265 29.94296702 3.42797852 28.57202148 C4.21358154 28.12028564 4.99918457 27.6685498 5.80859375 27.203125 C6.51298584 26.79352539 7.21737793 26.38392578 7.94311523 25.96191406 C11.57884618 24.26164345 14.02244788 24.41314805 18 25 C22.35131045 27.30363494 25.76704748 30.29161329 29 34 C29 34.99 29 35.98 29 37 C22.0040735 41.00714751 15.00390901 45.00682111 8 49 C6.75428223 49.7105957 6.75428223 49.7105957 5.48339844 50.43554688 C3.28236194 51.6893368 1.07916387 52.93921822 -1.125 54.1875 C-2.10823242 54.74812134 -2.10823242 54.74812134 -3.11132812 55.32006836 C-5.72353599 56.79482522 -8.14531106 58.04843702 -11 59 C-10.319375 59.969375 -9.63875 60.93875 -8.9375 61.9375 C-8.55464844 62.48277344 -8.17179687 63.02804688 -7.77734375 63.58984375 C-4.91297561 65.86245232 -2.61698557 65.91830217 1 66 C3.79654741 65.14451382 6.25648447 63.84474799 8.8125 62.4375 C9.86352905 61.88811768 9.86352905 61.88811768 10.93579102 61.32763672 C14.87219271 59.2458204 18.67190838 57.00357904 22.4375 54.625 C26.74613168 51.99355381 30.859437 49.98085451 36 50 C41.46390894 51.60509196 44.69075482 55.5876731 48 60 C46.48532255 64.2335705 43.84120598 65.63743094 40.0625 67.875 C39.48129395 68.22159668 38.90008789 68.56819336 38.30126953 68.92529297 C33.8254087 71.57417213 29.28996801 74.11316101 24.69140625 76.54296875 C22.81692132 77.55774796 20.97170467 78.62769742 19.15234375 79.73828125 C10.13264142 85.13521456 10.13264142 85.13521456 5.0234375 84.01953125 C1.28554354 82.13615225 -1.49453355 79.04967884 -4.4921875 76.17578125 C-8.10804375 73.03865986 -11.28664457 71.6296261 -16 71 C-22.78718698 71.59098131 -28.08847215 74.41675453 -33.75 78 C-46.34993573 85.80526992 -46.34993573 85.80526992 -54 85 C-58.81915019 82.4940419 -61.8219827 79.29967047 -65 75 C-65 74.34 -65 73.68 -65 73 C-64.45698242 72.70343506 -63.91396484 72.40687012 -63.35449219 72.10131836 C-60.8187081 70.71511476 -58.28432528 69.3263688 -55.75 67.9375 C-54.83355713 67.43669922 -53.91711426 66.93589844 -52.97290039 66.41992188 C-48.05218679 63.72002288 -43.21587831 60.94297472 -38.4375 58 C-33.19405296 54.88085961 -27.95443417 53.23073935 -22 52 C-26.17799411 47.69062243 -28.84339292 46.35354214 -34.8125 45.375 C-41.8574455 45.5045893 -48.08407971 49.70814191 -54.12304688 52.98242188 C-56.62538954 54.33905093 -59.150816 55.64637341 -61.6875 56.9375 C-62.41324219 57.31777344 -63.13898438 57.69804688 -63.88671875 58.08984375 C-67.04664721 59.45077412 -69.6735343 60.36427562 -73.0625 59.43359375 C-77.89493186 56.94917818 -80.92470409 54.51684087 -84 50 C-84 49.01 -84 48.02 -84 47 C-83.45698242 46.70343506 -82.91396484 46.40687012 -82.35449219 46.10131836 C-80.73520065 45.21612164 -79.11643047 44.32997084 -77.49804688 43.44311523 C-75.65663122 42.43423016 -73.81417093 41.42724956 -71.97070312 40.42211914 C-66.12501908 37.22373774 -66.12501908 37.22373774 -60.421875 33.78125 C-53.70395459 29.54213445 -47.93220234 27.68914524 -40 27 C-44.60019404 22.93471224 -47.93083687 20.36107802 -54.1875 19.625 C-60.80425539 20.2758284 -66.20824553 22.9278078 -71.91796875 26.234375 C-72.61156494 26.63599854 -73.30516113 27.03762207 -74.01977539 27.45141602 C-75.39334802 28.25791007 -76.75895615 29.0781713 -78.11499023 29.91381836 C-82.81629013 32.70383939 -86.50438026 33.82085782 -92 34 C-95.46148818 32.17128927 -98.50637103 30.04776874 -101 27 C-101 26.34 -101 25.68 -101 25 C-101.66 25 -102.32 25 -103 25 C-102.8671875 23.2421875 -102.8671875 23.2421875 -102 21 C-99.4453125 19.0703125 -99.4453125 19.0703125 -96.125 17.125 C-95.54000732 16.77912842 -94.95501465 16.43325684 -94.35229492 16.0769043 C-92.57703361 15.0349397 -90.79145373 14.01383086 -89 13 C-88.02417969 12.44699219 -87.04835937 11.89398438 -86.04296875 11.32421875 C-84.24368456 10.32804853 -82.4351437 9.34839123 -80.6171875 8.38671875 C-78.87542113 7.46384254 -77.15078479 6.50787069 -75.4453125 5.51953125 C-69.55848814 2.24601677 -64.73420211 0.93797529 -58 2 C-53.38552595 3.7170136 -50.93390645 7.33126167 -48.0390625 11.16015625 C-45.11101661 13.80212869 -42.89933121 14.44526648 -39 15 C-36.15463614 14.24666509 -33.7428349 12.93979541 -31.1875 11.5 C-30.49116455 11.1299585 -29.7948291 10.75991699 -29.07739258 10.37866211 C-24.26293823 7.79278116 -19.53850193 5.04755629 -14.91796875 2.12890625 C-10.2684705 -0.6077638 -5.2308642 -0.95809034 0 0 Z " fill="#10BCCD" transform="translate(292,18)"/>
<path d="M0 0 C0.73089844 0.32871094 1.46179688 0.65742188 2.21484375 0.99609375 C9.70868373 4.6981788 15.67972767 10.31486159 20.125 17.375 C21 20 21 20 20 23 C17.10112882 22.96688725 14.20983378 22.89962106 11.3125 22.8125 C10.08756836 22.80379883 10.08756836 22.80379883 8.83789062 22.79492188 C4.43859406 22.63462362 2.57652589 22.48627353 -0.89453125 19.55859375 C-1.58933594 18.71425781 -2.28414062 17.86992188 -3 17 C-10.70912114 12.50301267 -18.4833628 11.937273 -27.0625 14.0625 C-33.78102548 16.26410912 -37.54221307 20.32739063 -40.875 26.4375 C-43.50319759 34.76012569 -43.63887949 42.22621104 -39.9609375 50.2734375 C-36.16728903 56.85725324 -31.26839478 59.93083092 -24 62 C-15.75098498 62.82298758 -8.90238857 62.80702061 -2 58 C-0.02 55.69 1.96 53.38 4 51 C-2.27 51 -8.54 51 -15 51 C-15 46.05 -15 41.1 -15 36 C-1.8 36 11.4 36 25 36 C25 49.72241925 21.97908094 57.89057376 13 68 C2.72596173 76.7985115 -8.74124757 79.67018284 -22 79 C-32.60775674 78.0075565 -42.75918992 72.85782146 -50 65 C-56.72785154 56.45896861 -59.57713313 48.48516165 -59.5 37.6875 C-59.49427979 36.75977783 -59.48855957 35.83205566 -59.48266602 34.8762207 C-59.18642293 23.5082662 -55.04766372 15.89156679 -47 8 C-46.443125 7.44441406 -45.88625 6.88882812 -45.3125 6.31640625 C-33.92779983 -4.25133627 -13.96053187 -6.96616439 0 0 Z " fill="#10BCCD" transform="translate(110,23)"/>
<path d="M0 0 C13.86 0 27.72 0 42 0 C42 4.95 42 9.9 42 15 C33.42 15 24.84 15 16 15 C16 20.61 16 26.22 16 32 C24.58 32 33.16 32 42 32 C42 37.28 42 42.56 42 48 C33.42 48 24.84 48 16 48 C16 53.28 16 58.56 16 64 C24.58 64 33.16 64 42 64 C42 69.28 42 74.56 42 80 C28.14 80 14.28 80 0 80 C0 53.6 0 27.2 0 0 Z " fill="#10BCCD" transform="translate(532,21)"/>
<path d="M0 0 C6.81976979 3.97819905 10.37940516 8.23391098 13 15.75 C13 17.73 13 19.71 13 21.75 C7.72 21.75 2.44 21.75 -3 21.75 C-3.99 19.77 -4.98 17.79 -6 15.75 C-10.28123588 14.58239021 -12.67585996 14.66896499 -17 15.75 C-17 19.05 -17 22.35 -17 25.75 C-16.33613281 26.01425781 -15.67226563 26.27851562 -14.98828125 26.55078125 C-14.00214844 26.94652344 -13.01601563 27.34226562 -12 27.75 C-10.77667969 28.23855469 -9.55335938 28.72710937 -8.29296875 29.23046875 C0.77783647 32.95497805 8.60469835 36.33873799 14 44.9375 C16.10548844 52.96467468 16.11017821 61.37488184 12 68.75 C8.11249121 74.41465566 3.09503876 78.38498708 -3.4375 80.5625 C-4.283125 80.624375 -5.12875 80.68625 -6 80.75 C-6.65613281 80.80027344 -7.31226563 80.85054688 -7.98828125 80.90234375 C-15.89108467 81.24357015 -23.12771639 79.20458243 -29.4296875 74.32421875 C-34.95546368 68.78469686 -36.0353046 63.46756319 -37 55.75 C-31.39 55.75 -25.78 55.75 -20 55.75 C-19.01 58.06 -18.02 60.37 -17 62.75 C-13.53761913 64.48119043 -9.78582345 64.22070629 -6 63.75 C-3.28892287 62.37283334 -3.28892287 62.37283334 -2 59.75 C-1.24988633 56.29271642 -1.24988633 56.29271642 -2 52.75 C-5.51671328 48.44812935 -9.10611958 46.65819168 -14.25 44.9375 C-22.28382239 41.98406164 -27.81168877 37.90446615 -33.0625 31.0625 C-35.18560593 23.56085906 -35.3122184 16.18886074 -31.5 9.25 C-24.64546959 -0.76315012 -11.42175547 -4.64956417 0 0 Z " fill="#10BCCD" transform="translate(393,21.25)"/>
<path d="M0 0 C4.66003933 -0.09248149 9.31682043 -0.17190971 13.97705078 -0.21972656 C15.55789045 -0.23968422 17.13865783 -0.2668606 18.71923828 -0.30175781 C29.08085878 -0.52458836 38.19400478 -0.69602554 46.65625 6.1484375 C47.2646875 6.88320313 47.873125 7.61796875 48.5 8.375 C49.1290625 9.10460938 49.758125 9.83421875 50.40625 10.5859375 C54.78347503 17.21614601 54.60512822 24.32543738 54 32 C52.80177797 37.54807005 49.23562009 42.3233071 45 46 C41.76666039 47.91873815 38.45359927 49.51891099 35 51 C36.16015625 52.54107422 36.16015625 52.54107422 37.34375 54.11328125 C40.57019847 58.40310903 43.7862999 62.70061766 47 67 C47.44666016 67.59570801 47.89332031 68.19141602 48.35351562 68.80517578 C49.4907522 70.32466532 50.62068571 71.84961325 51.75 73.375 C52.38421875 74.22835937 53.0184375 75.08171875 53.671875 75.9609375 C55 78 55 78 55 80 C51.99259872 80.3001338 49.01525377 80.51551886 46 80.6875 C45.16082031 80.77966797 44.32164062 80.87183594 43.45703125 80.96679688 C40.63611435 81.08706853 38.66790189 80.95193378 36 80 C32.66520027 76.75237203 30.41127998 72.95884045 28 69 C26.62658797 66.95765283 25.24634141 64.91988542 23.859375 62.88671875 C22.48718149 60.82190666 21.11739638 58.75549205 19.75 56.6875 C18.70972656 55.12032227 18.70972656 55.12032227 17.6484375 53.52148438 C16.33052201 51.53577454 15.01462476 49.54872305 13.70117188 47.56005859 C12.32562922 45.49003272 10.92631103 43.44052185 9.515625 41.39453125 C8 39 8 39 8 37 C8.90709717 36.970271 8.90709717 36.970271 9.83251953 36.93994141 C12.59708509 36.84413701 15.36095174 36.73468445 18.125 36.625 C19.55199219 36.57859375 19.55199219 36.57859375 21.0078125 36.53125 C25.97331019 36.32435426 30.39916244 36.08044356 35 34 C37.58802305 30.28674953 37.22174697 26.34185831 36.59765625 22.0234375 C36.11829587 19.77456539 36.11829587 19.77456539 33.875 18 C26.7298895 15.51474417 19.04738949 15.70846633 11.5625 15.4375 C10.44939453 15.39431641 9.33628906 15.35113281 8.18945312 15.30664062 C5.45975809 15.20120176 2.72989382 15.10016004 0 15 C0 10.05 0 5.1 0 0 Z " fill="#10BCCD" transform="translate(459,21)"/>
<path d="M0 0 C5.28 0 10.56 0 16 0 C16 21.12 16 42.24 16 64 C23.92 64 31.84 64 40 64 C40.020625 66.454375 40.04125 68.90875 40.0625 71.4375 C40.071604 72.21150146 40.08070801 72.98550293 40.09008789 73.78295898 C40.09724913 75.52221717 40.05024702 77.26145304 40 79 C39.67 79.33 39.34 79.66 39 80 C26.13 80 13.26 80 0 80 C0 53.6 0 27.2 0 0 Z " fill="#10BCCD" transform="translate(154,21)"/>
<path d="M0 0 C5.28 0 10.56 0 16 0 C16 15.84 16 31.68 16 48 C10.72 48 5.44 48 0 48 C0 32.16 0 16.32 0 0 Z " fill="#10BCCD" transform="translate(425,53)"/>
<path d="M0 0 C1.32 0 2.64 0 4 0 C5.703125 2.1875 5.703125 2.1875 7.25 5 C8.03117188 6.3921875 8.03117188 6.3921875 8.828125 7.8125 C9.21484375 8.534375 9.6015625 9.25625 10 10 C13.25504403 6.90636311 15.1343981 4.10432418 17 0 C18.65 0 20.3 0 22 0 C22 6.93 22 13.86 22 21 C20.68 21 19.36 21 18 21 C17.67 17.04 17.34 13.08 17 9 C15.35 11.31 13.7 13.62 12 16 C8 15 8 15 6.734375 13.37109375 C5.82291667 11.58072917 4.91145833 9.79036458 4 8 C3.67 12.29 3.34 16.58 3 21 C2.01 21 1.02 21 0 21 C0 14.07 0 7.14 0 0 Z " fill="#A4AAAD" transform="translate(154,119)"/>
<path d="M0 0 C5.28 0 10.56 0 16 0 C16 4.95 16 9.9 16 15 C10.72 15 5.44 15 0 15 C0 10.05 0 5.1 0 0 Z " fill="#FFD64B" transform="translate(425,21)"/>
<path d="M0 0 C10.97708082 -0.48250905 10.97708082 -0.48250905 15.3125 1.5625 C17 4 17 4 17 7.5625 C16.06919104 10.7621558 15.61655007 12.06602821 13 14 C14.2375 15.175625 14.2375 15.175625 15.5 16.375 C18 19 18 19 18 21 C15.8125 20.875 15.8125 20.875 13 20 C11.30911778 18.02043058 9.64169528 16.02054804 8 14 C5.83468832 13.05563651 5.83468832 13.05563651 4 13 C4 15.64 4 18.28 4 21 C2.68 21 1.36 21 0 21 C0 14.07 0 7.14 0 0 Z M4 3 C4 5.31 4 7.62 4 10 C8.00254456 10.09181134 8.00254456 10.09181134 12 10 C13.29633621 8.93354885 13.29633621 8.93354885 13.0625 6.4375 C13.041875 5.633125 13.02125 4.82875 13 4 C10.04335481 2.5216774 7.25770263 2.93967217 4 3 Z " fill="#A4AAAD" transform="translate(273,119)"/>
<path d="M0 0 C5.28 0 10.56 0 16 0 C16 0.99 16 1.98 16 3 C12.04 3 8.08 3 4 3 C4 4.98 4 6.96 4 9 C7.3 9 10.6 9 14 9 C14 9.99 14 10.98 14 12 C10.7 12 7.4 12 4 12 C4 13.98 4 15.96 4 18 C7.96 18 11.92 18 16 18 C16 18.99 16 19.98 16 21 C10.72 21 5.44 21 0 21 C0 14.07 0 7.14 0 0 Z " fill="#A4AAAD" transform="translate(467,119)"/>
<path d="M0 0 C2.5 1 2.5 1 4 2 C4 2.99 4 3.98 4 5 C0.37 4.67 -3.26 4.34 -7 4 C-7 4.99 -7 5.98 -7 7 C-6.30132812 7.25394531 -5.60265625 7.50789063 -4.8828125 7.76953125 C-3.51769531 8.28580078 -3.51769531 8.28580078 -2.125 8.8125 C-1.22007812 9.14894531 -0.31515625 9.48539063 0.6171875 9.83203125 C3 11 3 11 5 14 C4.6758631 17.32240324 4.39223697 18.60776303 2 21 C-0.71484375 21.30078125 -0.71484375 21.30078125 -3.9375 21.3125 C-4.99839844 21.32925781 -6.05929687 21.34601563 -7.15234375 21.36328125 C-10 21 -10 21 -11.87890625 19.48046875 C-12.24886719 18.99191406 -12.61882812 18.50335938 -13 18 C-12.505 16.515 -12.505 16.515 -12 15 C-11.46375 15.309375 -10.9275 15.61875 -10.375 15.9375 C-7.57169476 17.19161024 -5.04694792 17.66881001 -2 18 C-1.34 17.67 -0.68 17.34 0 17 C0 16.01 0 15.02 0 14 C-0.69867188 13.73445312 -1.39734375 13.46890625 -2.1171875 13.1953125 C-3.02726562 12.84210938 -3.93734375 12.48890625 -4.875 12.125 C-5.77992188 11.77695313 -6.68484375 11.42890625 -7.6171875 11.0703125 C-10 10 -10 10 -12 8 C-12.375 5.5625 -12.375 5.5625 -12 3 C-8.82215256 -0.83989899 -4.60766928 -0.57595866 0 0 Z " fill="#A4AAAD" transform="translate(509,119)"/>
<path d="M0 0 C1.32 0 2.64 0 4 0 C5.33912585 3.12254943 6.67030658 6.24842358 8 9.375 C8.3815625 10.26445312 8.763125 11.15390625 9.15625 12.0703125 C9.5171875 12.92109375 9.878125 13.771875 10.25 14.6484375 C10.58515625 15.43395996 10.9203125 16.21948242 11.265625 17.02880859 C12 19 12 19 12 21 C10.68 21 9.36 21 8 21 C7.34 19.35 6.68 17.7 6 16 C3.03 15.67 0.06 15.34 -3 15 C-3.33 16.65 -3.66 18.3 -4 20 C-5.65 20.33 -7.3 20.66 -9 21 C-6.03 14.07 -3.06 7.14 0 0 Z M1 5 C0.34 7.31 -0.32 9.62 -1 12 C0.98 12 2.96 12 5 12 C4.01 9.69 3.02 7.38 2 5 C1.67 5 1.34 5 1 5 Z " fill="#A4AAAD" transform="translate(411,119)"/>
<path d="M0 0 C9.92391304 -0.35869565 9.92391304 -0.35869565 14.1875 1.0625 C16 3 16 3 16.5 6.5 C16 10 16 10 14.79296875 11.70703125 C12.36817042 13.45563309 10.76876923 13.30267932 7.8125 13.1875 C6.91144531 13.16042969 6.01039063 13.13335937 5.08203125 13.10546875 C4.39496094 13.07066406 3.70789063 13.03585938 3 13 C3 15.64 3 18.28 3 21 C2.01 21 1.02 21 0 21 C0 14.07 0 7.14 0 0 Z M3 3 C3 5.64 3 8.28 3 11 C7.455 10.505 7.455 10.505 12 10 C12.67958603 7.60280568 12.67958603 7.60280568 13 5 C11.23863645 2.81668311 11.23863645 2.81668311 9.0546875 2.8046875 C6.02734375 2.90234375 6.02734375 2.90234375 3 3 Z " fill="#A4AAAD" transform="translate(325,119)"/>
<path d="M0 0 C6.27 0 12.54 0 19 0 C19 0.99 19 1.98 19 3 C16.69 3 14.38 3 12 3 C12 8.94 12 14.88 12 21 C10.68 21 9.36 21 8 21 C8 15.06 8 9.12 8 3 C5.36 3 2.72 3 0 3 C0 2.01 0 1.02 0 0 Z " fill="#A4AAAD" transform="translate(374,119)"/>
<path d="M0 0 C2.53910197 0.38520564 3.72751123 0.70097943 5.484375 2.62890625 C5.90203125 3.26699219 6.3196875 3.90507813 6.75 4.5625 C7.17796875 5.20316406 7.6059375 5.84382813 8.046875 6.50390625 C8.36140625 6.99761719 8.6759375 7.49132812 9 8 C9.47179687 7.13375 9.47179687 7.13375 9.953125 6.25 C10.59507812 5.13625 10.59507812 5.13625 11.25 4 C11.66765625 3.2575 12.0853125 2.515 12.515625 1.75 C13.00546875 1.1725 13.4953125 0.595 14 0 C15.32 0 16.64 0 18 0 C16.94565932 2.98729859 15.88138776 5.15455534 13.9375 7.6875 C11.37327192 12.07150284 11.19762729 16.00002963 11 21 C9.68 21 8.36 21 7 21 C6.938125 19.0509375 6.938125 19.0509375 6.875 17.0625 C6.35694245 12.01741643 4.30602754 8.92179616 1.27734375 4.9453125 C0 3 0 3 0 0 Z " fill="#A4AAAD" transform="translate(190,119)"/>
<path d="M0 0 C1.32 0 2.64 0 4 0 C4 5.94 4 11.88 4 18 C7.96 18 11.92 18 16 18 C16 18.99 16 19.98 16 21 C10.72 21 5.44 21 0 21 C0 14.07 0 7.14 0 0 Z " fill="#A4AAAD" transform="translate(437,119)"/>
<path d="M0 0 C6.27 0 12.54 0 19 0 C19 0.99 19 1.98 19 3 C16.36 3 13.72 3 11 3 C11 8.94 11 14.88 11 21 C10.01 21 9.02 21 8 21 C8 15.06 8 9.12 8 3 C5.36 3 2.72 3 0 3 C0 2.01 0 1.02 0 0 Z " fill="#A4AAAD" transform="translate(240,119)"/>
<path d="M0 0 C1.32 0 2.64 0 4 0 C4 6.93 4 13.86 4 21 C2.68 21 1.36 21 0 21 C0 14.07 0 7.14 0 0 Z " fill="#A4AAAD" transform="translate(305,119)"/>
</svg>
